#N canvas 122 111 479 786 10;
#X obj 85 93 unpackOSC;
#X obj 85 123 pipelist;
#X obj 85 63 udpreceive 6010;
#X obj 86 153 routeOSC /sound;
#X obj 106 213 print;
#X obj 86 243 unpack f f;
#X obj 243 487 vsl 15 128 0 127 0 0 empty empty empty 0 -9 0 10 -262144
-1 -1 6324 1;
#X obj 89 683 hsl 128 15 0 127 0 0 empty empty empty -2 -8 0 10 -262144
-1 -1 5298 1;
#X obj 243 455 * 127;
#X obj 86 273 * 127;
#X obj 243 425 -;
#X obj 243 365 t b f;
#X msg 243 395 1;
#X text 81 24 This requires the mrpeach library;
#X obj 86 183 routeOSC /xy /click;
#X obj 307 259 bng 15 250 50 0 empty empty empty 17 7 0 10 -262144
-1 -1;
#X obj 332 245 b;
#X obj 332 266 s enter;
#X floatatom 142 407 5 0 0 0 - - -;
#X obj 355 500 s volume;
#X obj 117 314 s filter;
#X connect 0 0 1 0;
#X connect 1 0 3 0;
#X connect 2 0 0 0;
#X connect 3 0 14 0;
#X connect 5 0 9 0;
#X connect 5 0 18 0;
#X connect 5 0 20 0;
#X connect 5 1 11 0;
#X connect 8 0 6 0;
#X connect 9 0 7 0;
#X connect 10 0 8 0;
#X connect 10 0 19 0;
#X connect 11 0 12 0;
#X connect 11 1 10 1;
#X connect 12 0 10 0;
#X connect 14 0 4 0;
#X connect 14 0 5 0;
#X connect 14 1 15 0;
#X connect 14 1 16 0;
#X connect 16 0 17 0;
