#N canvas 718 26 728 715 10;
#X obj 75 280 readsf~;
#X obj 64 54 loadbang;
#X obj 288 505 *~;
#X obj 330 333 r volume;
#X obj 330 375 *;
#X msg 330 396 \$1 30;
#X obj 330 417 line~;
#X obj 330 354 t f f;
#X obj 213 202 r filter;
#X obj 216 278 *;
#X obj 216 257 t f f;
#X obj 216 320 + 20;
#X obj 216 299 * 6000;
#X msg 64 75 \; pd dsp 1 \; start bang;
#X obj 69 182 r start;
#X msg 69 215 open clicky.wav \, 1;
#X obj 191 358 bp~ 10 10;
#X obj 493 226 r enter;
#X obj 493 322 readsf~;
#X msg 493 274 open Pot.wav \, 1;
#X obj 493 370 *~ 0.3;
#X obj 493 418 dac~;
#X obj 288 577 dac~;
#X obj 288 541 hip~ 5;
#X connect 0 0 16 0;
#X connect 0 1 15 0;
#X connect 1 0 13 0;
#X connect 2 0 23 0;
#X connect 3 0 7 0;
#X connect 4 0 5 0;
#X connect 5 0 6 0;
#X connect 6 0 2 1;
#X connect 7 0 4 0;
#X connect 7 1 4 1;
#X connect 8 0 10 0;
#X connect 9 0 12 0;
#X connect 10 0 9 0;
#X connect 10 1 9 1;
#X connect 11 0 16 1;
#X connect 12 0 11 0;
#X connect 14 0 15 0;
#X connect 15 0 0 0;
#X connect 16 0 2 0;
#X connect 17 0 19 0;
#X connect 18 0 20 0;
#X connect 19 0 18 0;
#X connect 20 0 21 0;
#X connect 20 0 21 1;
#X connect 23 0 22 0;
#X connect 23 0 22 1;
